<?xml version="1.0" encoding="utf-8"?>
<!-- Generator: Adobe Illustrator 25.2.0, SVG Export Plug-In . SVG Version: 6.00 Build 0)  -->
<svg version="1.1" id="レイヤー_1" xmlns="http://www.w3.org/2000/svg" xmlns:xlink="http://www.w3.org/1999/xlink" x="0px"
	 y="0px" viewBox="0 0 500 500" style="enable-background:new 0 0 500 500;" xml:space="preserve">
<rect width="100%" height="100%" fill="#fff"/>
<style type="text/css">
	.st0{fill:#FF3300;}
	.st1{fill:url(#SVGID_1_);}
</style>
<path class="st0" d="M99.1,185L65,200.9L80.9,235l34.1-15.9L99.1,185z"/>
<linearGradient id="SVGID_1_" gradientUnits="userSpaceOnUse" x1="125" y1="731" x2="375" y2="481" gradientTransform="matrix(1 0 0 1 0 -406)">
	<stop  offset="0.35" style="stop-color:#0044DD"/>
	<stop  offset="1" style="stop-color:#0066FF"/>
</linearGradient>
<path class="st1" d="M125,75v105.2l40-0.2v40l-40-0.2V325h250V75H125z"/>
<g>
	<rect x="399.7" y="449" width="7.2" height="7.2"/>
	<g>
		<polygon points="128.8,419.3 128.8,449.9 93.7,449.9 93.7,456.4 136.6,456.4 136.6,412.8 93.1,412.8 93.1,419.3 		"/>
		<path d="M223.5,434.2c0-8,0.5-16,1.5-24h-6.8c-1,7.8-1.5,15.7-1.6,23.7c-0.1,8,0.6,16,1.9,23.9h6.9
			C224,448.2,223.4,441.9,223.5,434.2z"/>
		<path d="M254.8,441.6v-9h9.9v-5.8h-9.9v-8.1h9.9v-5.9h-32.3v5.8h15.9v8.1h-17.9v5.8h17.9v7.8l-0.5-0.1h-0.3
			c-1-0.1-2.1-0.2-3.1-0.1c-4.1,0-7.4,0.8-9.7,2.4c-2.3,1.5-3.7,4.1-3.6,6.8c0.1,2.6,1.6,5,3.8,6.2c2.8,1.7,6,2.5,9.2,2.5
			c3.7,0,6.3-0.7,8-2.2s2.5-3.6,2.8-6.9v-0.4l0.1-0.8l1,0.6c1.8,1.1,3.9,2.6,6.1,4.3l1.6,1.2l3.8-4.7c-3.8-3-7.9-5.5-12.3-7.4
			L254.8,441.6z M248.3,446.5v0.2c0.1,1.7-0.3,3.4-1.3,4.8c-1.1,1.2-2.7,1.9-4.4,1.7c-1.5,0.1-3-0.3-4.4-0.9c-1.2-0.6-1.9-1.7-1.9-3
			c0.1-1.3,0.8-2.4,2-3c1.5-0.8,3.2-1.2,4.9-1.1c1.6,0,3.2,0.3,4.6,0.9l0.2,0l0.3,0.1L248.3,446.5z"/>
		<path d="M288.5,434.2c0-8,0.5-16,1.5-24h-6.8c-1,7.8-1.5,15.7-1.6,23.7c-0.1,8,0.6,16,1.9,23.9h6.9
			C289.1,448.2,288.4,441.9,288.5,434.2z"/>
		<path d="M321.1,427.2h9.4v-5.8H321v-13.9h-6.8v13.9h-18v5.8h18.2v4.2c0,4.5-0.1,8.7-1.5,12.4s-4.1,6.8-8.3,9.3l3.5,5.7
			c5.2-2.9,8.5-6.4,10.4-10.8c1.8-4,2.6-9,2.6-16.7L321.1,427.2z"/>
		<rect x="399.7" y="407.5" width="7.2" height="36.3"/>
		<path d="M177.9,412.8c-14,0-25.4,11-25.4,24.5c0,4.1,1.2,8.1,3.4,11.6c2.2,3.2,5.1,5,8.1,5c4.1,0,7.6-3.3,10.4-9.9
			c2.5-5.8,4.4-14.1,5.9-24.9v-0.2l0.1-0.5l0.5,0.1h0.2c7.8,1.4,13.1,7.4,13.1,15.1c0,5.9-2,10.5-6,13.8c-2.2,1.7-4.7,2.9-7.3,3.7
			v6.4c6.4-1.7,11.4-4.7,14.8-8.9c3.4-4.3,5.1-9.6,5-15.1c0.2-5.4-1.8-10.6-5.6-14.5C191.1,415,185.1,412.8,177.9,412.8z
			 M173.7,419.1l-0.1,0.4c-0.7,6.7-2.1,13.4-4.2,19.8c-0.6,1.9-1.5,3.6-2.6,5.3c-1,1.4-2,2-3,2c-0.8,0-1.5-0.3-2.1-0.9
			c-0.6-0.6-1.2-1.3-1.6-2.1c-1-2.1-1.5-4.3-1.5-6.6c0-7.3,4.3-15.9,13.9-18.3l0.3-0.1l0.7-0.2L173.7,419.1z"/>
		<path d="M379.2,440.3c-0.3,0.8-0.6,1.6-0.9,2.3c-0.8,2.2-1.9,4.3-3.1,6.3c-1.1,1.7-2.9,2.8-4.9,3c-0.3,0-0.6,0.1-0.9,0.1
			c-0.9,0-1.8-0.2-2.5-0.8c-1.1-1-1.7-2.4-1.9-3.9c-0.4-2.2-0.8-4.1-1.5-7.1c-0.3-1.9-1.1-3.6-2.3-5c-1.2-1.2-2.8-1.8-4.4-1.7
			c-0.8,0-1.7,0-2.5,0.2c-0.8,0.2-1.6,0.7-2.2,1.2l-0.3,0.2l-1-0.7c0,0,8.2-21.1,10.1-25.6h-7c-5.9,15.6-13.1,33-19,47.1l-0.1,0.2
			l5.7,2.3c0.9-1.9,1.6-3.4,2.2-4.8l0.7-1.6l0,0v-0.1l0,0v0l0,0c0.6-1.2,1.2-2.3,1.8-3.6c0.8-1.5,1.8-3,2.8-4.3
			c0.9-1.2,1.9-2.3,3-3.2c0.8-0.8,1.9-1.2,3-1.3c1.7,0,3,1.5,3.5,4c0.3,2.1,0.7,4.2,1.2,6.3c0.6,5.1,5.1,8.8,10.2,8.3
			c3.2,0.1,6.3-1,8.8-3c2.1-2,3.8-4.5,4.9-7.2c1-2.3,2.4-5.7,3.6-9.1h-6.6L379.2,440.3z"/>
	</g>
	<path d="M151.3,384.6c-4.7,0-7.1-0.7-7.1-2c0-1,0.4-1.8,1.7-3.7l0.3-0.4l-0.4-0.2l-2.3-1.2l-0.3-0.2l-0.2,0.3
		c-1.3,1.7-2.1,3.7-2.3,5.8c0,2.2,1.9,4.9,10.8,4.9c1.6,0,3-0.1,4.7-0.2h0.4v-3.3l-0.5,0C154.4,384.5,152.9,384.6,151.3,384.6z
		 M143.4,370.9h12.7v3.2H143v-3.2H143.4z M184.4,377.6l-0.4-0.3l-0.2,0.5c-1.9,4.6-5.2,7.1-9.1,7.1c-4.2,0-5.8-1.8-5.8-6.3v-18h-3.7
		v18.2c0,6.5,3.1,9.6,9.4,9.6c5.3,0,9.6-3,12.3-8.8l0.2-0.3l-0.3-0.2L184.4,377.6z M214.1,383.3c-6.7,0-7.5-1.2-7.5-2.1
		s0.7-1.9,1.6-3.4l0.5-0.8l0.2-0.4l-0.4-0.2l-2.3-1.2l-0.4-0.2l-0.2,0.3c-1.7,2.7-2.7,4.6-2.7,6.2c0,3.5,3.4,5,11.1,5
		c1.4,0,3.2,0,5.1-0.2h0.4v-3.3l-0.5,0C217.2,383.3,215.5,383.4,214.1,383.3L214.1,383.3z M219,368.3h0.4v-3.3h-15.7v3.3H219
		L219,368.3z M235,387.3c-2-2.4-4.3-4.6-6.8-6.4l-0.3-0.2l-0.3,0.2l-1.7,1.6l-0.4,0.3l0.4,0.3c2.4,1.9,4.5,4,6.4,6.4l0.3,0.4
		l0.4-0.3l1.9-1.7l0.3-0.3L235,387.3z M114.4,366.6c-3.3,0-6.2,1.2-9.7,4.1V360h-3.5v7.4H95v3.2h6.2v3.5c-1.9,2-4,4.5-6.6,7.8
		l-0.2,0.3l0.3,0.3l2,1.8l0.3,0.3l0.3-0.4c1.5-1.9,2.8-3.5,3.9-4.8v9.4h3.6v-13.3c3.8-3.8,6.6-5.4,9.5-5.4c3.2,0,5.5,2.6,5.5,6.3
		c0,4.8-3.4,7.3-11,8.1h-0.4v3.4h0.4c9.3-0.5,14.6-4.6,14.6-11.4C123.4,370.7,119.7,366.6,114.4,366.6z M199.6,375.4
		c0-4.2,0.3-8.4,1-12.5l0.1-0.5h-3.6l-0.1,0.4c-0.7,4.2-1,8.5-1,12.7c-0.1,4,0.3,7.9,1.1,11.8l0.1,0.3h3.7l-0.1-0.5
		C200,383.2,199.7,379.3,199.6,375.4L199.6,375.4z M146.5,368.6h-6.9c-1.2,6.6-2.9,13.2-5,19.6l-0.1,0.3h-3.9l0.2-0.6
		c2.1-6.3,3.8-12.8,5-19.3h-5.6v-3.2h6.2c0.3-1.9,0.5-3.5,0.6-5V360h3.8v0.5c-0.1,1.5-0.3,3-0.6,4.9h6.9v3.2L146.5,368.6z"/>
</g>
</svg>
